<?xml version="1.0" encoding="UTF-8" standalone="no"?>
<svg width="274px" height="72px" viewBox="0 0 274 72" version="1.1" xmlns="http://www.w3.org/2000/svg" xmlns:xlink="http://www.w3.org/1999/xlink" xmlns:sketch="http://www.bohemiancoding.com/sketch/ns">
    <!-- Generator: Sketch 3.3.2 (12043) - http://www.bohemiancoding.com/sketch -->
    <title>klenly-logo-watermelon</title>
    <desc>Created with Sketch.</desc>
    <defs></defs>
    <g id="Page-1" stroke="none" stroke-width="1" fill="none" fill-rule="evenodd" sketch:type="MSPage">
        <g id="logo-watermelon" sketch:type="MSArtboardGroup" transform="translate(-43.000000, -57.000000)" fill="#EF536D">
            <g id="klenly-logo-watermelon" sketch:type="MSLayerGroup" transform="translate(43.000000, 54.000000)">
                <text id="klenly" sketch:type="MSTextLayer" font-family="Aovel Sans" font-size="77" font-weight="normal" letter-spacing="6.06299257">
                    <tspan x="76" y="61">klenly</tspan>
                </text>
                <g id="klenly-icon" transform="translate(0.000000, 3.000000)" sketch:type="MSShapeGroup">
                    <path d="M52.6187307,12.2064953 C47.4482761,7.03536404 40.3039678,3.83605644 32.412613,3.83605644 C24.5219349,3.83605644 17.3776266,7.03536404 12.2058187,12.2064953 C7.03536404,17.3769499 3.83673311,24.5219349 3.83673311,32.412613 C3.83673311,40.3032911 7.03536404,47.4475994 12.2058187,52.6187307 C17.3776266,57.789862 24.5219349,60.9878163 32.412613,60.9878163 C40.3039678,60.9878163 47.4482761,57.789862 52.6187307,52.6187307 C57.789862,47.4475994 60.988493,40.3032911 60.988493,32.412613 C60.988493,24.5219349 57.789862,17.3769499 52.6187307,12.2064953 L52.6187307,12.2064953 Z M32.412613,0 C41.3622836,0 49.4654368,3.62831798 55.3315108,9.49439193 C61.1969081,15.3597892 64.8245494,23.4622658 64.8245494,32.412613 C64.8245494,41.3616069 61.1969081,49.4654368 55.3315108,55.3308341 C49.4654368,61.1962314 41.3622836,64.8245494 32.412613,64.8245494 C23.4629425,64.8245494 15.3597892,61.1962314 9.49439193,55.3308341 C3.62899465,49.4654368 0,41.3616069 0,32.412613 C0,23.4622658 3.62899465,15.3597892 9.49439193,9.49439193 C15.3597892,3.62831798 23.4629425,0 32.412613,0 L32.412613,0 Z" id="Fill-23"></path>
                    <path d="M54.6482032,28.9707568 C54.647014,28.9671892 54.647014,28.9642162 54.6458248,28.9612432 C54.6345275,28.9362703 54.6166897,28.9166486 54.603014,28.8940541 C54.5857708,28.8643243 54.5726897,28.8328108 54.5506897,28.8060541 L46.9214464,19.2687568 C46.8798248,19.2164324 46.8298789,19.1736216 46.7763654,19.1355676 C46.7716086,19.132 46.7692302,19.1266486 46.7644735,19.1236757 C46.7573383,19.1189189 46.749014,19.1183243 46.7418789,19.1141622 C46.6699329,19.068973 46.5926356,19.0344865 46.5093924,19.0166486 C46.4998789,19.0148649 46.4915546,19.0154595 46.482041,19.0136757 C46.4427978,19.0071351 46.4035546,19 46.3631221,19 L19.3417708,19 C19.3013383,19 19.2626897,19.0071351 19.224041,19.0136757 C19.2139329,19.0148649 19.2044194,19.0148649 19.1949059,19.0166486 C19.1116627,19.0344865 19.03496,19.068973 18.963014,19.1141622 C18.9558789,19.1183243 18.9475546,19.1183243 18.9404194,19.1236757 C18.9350681,19.1266486 18.9332843,19.132 18.9279329,19.1355676 C18.875014,19.1736216 18.8250681,19.2164324 18.7828519,19.2687568 L11.153014,28.8060541 C11.1316086,28.8328108 11.1185275,28.8643243 11.1018789,28.8934595 C11.0882032,28.9166486 11.0697708,28.9362703 11.0584735,28.9612432 C11.0572843,28.9642162 11.0572843,28.9677838 11.0555005,28.9707568 C11.0382573,29.0123784 11.0293383,29.0563784 11.0192302,29.1003784 C11.0144735,29.1223784 11.0055546,29.1437838 11.0025816,29.1657838 C10.9972302,29.2103784 11.0013924,29.2555676 11.0043654,29.3007568 C11.0061491,29.3227568 11.0025816,29.3447568 11.0061491,29.3667568 C11.0115005,29.4006486 11.0257708,29.4327568 11.0364735,29.4660541 C11.0465816,29.4975676 11.0525275,29.5302703 11.0667978,29.5605946 C11.0673924,29.5611892 11.0673924,29.5617838 11.0673924,29.5623784 C11.0941491,29.6182703 11.1298248,29.6682162 11.1684735,29.714 C11.1726356,29.7193514 11.175014,29.7258919 11.1791762,29.7306486 L32.319987,53.2551892 C32.3491221,53.2878919 32.3824194,53.3158378 32.4169059,53.3425946 C32.4204735,53.3455676 32.424041,53.3497297 32.4276086,53.3521081 C32.4817167,53.3919459 32.5417708,53.4210811 32.6042032,53.4448649 C32.6190681,53.4502162 32.6339329,53.454973 32.6493924,53.4597297 C32.7153924,53.4787568 32.7825816,53.4924324 32.8521491,53.4924324 C32.9223113,53.4924324 32.9895005,53.4787568 33.0543113,53.4597297 C33.0703654,53.454973 33.0852302,53.4502162 33.1000951,53.4448649 C33.1631221,53.4210811 33.2225816,53.3919459 33.2760951,53.3521081 C33.2808519,53.3497297 33.2832302,53.3455676 33.2873924,53.3425946 C33.3218789,53.3158378 33.3545816,53.2878919 33.3843113,53.2551892 L54.5245275,29.7306486 C54.5286897,29.7258919 54.5310681,29.7193514 54.5352302,29.714 C54.5744735,29.6682162 54.6101491,29.6182703 54.6369059,29.5623784 C54.6375005,29.5617838 54.6375005,29.5611892 54.6375005,29.5605946 C54.6517708,29.5308649 54.6571221,29.4987568 54.6666356,29.4678378 C54.6779329,29.4339459 54.6927978,29.4012432 54.6981491,29.3661622 C54.7011221,29.3453514 54.6981491,29.3239459 54.6999329,29.3019459 C54.7029059,29.2567568 54.7076627,29.210973 54.7017167,29.1657838 C54.6993383,29.1437838 54.6898248,29.122973 54.6850681,29.1003784 C54.67496,29.0563784 54.666041,29.0123784 54.6482032,28.9707568 L54.6482032,28.9707568 Z M45.0145816,20.4311892 L39.8737167,28.0146486 L34.2702573,20.4311892 L45.0145816,20.4311892 L45.0145816,20.4311892 Z M38.4805816,28.5372973 L27.2231221,28.5372973 L32.8521491,20.9193514 L38.4805816,28.5372973 L38.4805816,28.5372973 Z M31.434041,20.4311892 L25.8305816,28.0146486 L20.6909059,20.4311892 L31.434041,20.4311892 L31.434041,20.4311892 Z M19.2936086,20.9199459 L24.4564735,28.5372973 L13.1996086,28.5372973 L19.2936086,20.9199459 L19.2936086,20.9199459 Z M13.3155546,29.9678919 L25.2728519,29.9678919 L31.2515005,49.9260541 L13.3155546,29.9678919 L13.3155546,29.9678919 Z M32.8521491,50.2845946 L26.7658789,29.9678919 L38.9384194,29.9678919 L32.8521491,50.2845946 L32.8521491,50.2845946 Z M34.4522032,49.9260541 L40.4308519,29.9678919 L52.3881491,29.9678919 L34.4522032,49.9260541 L34.4522032,49.9260541 Z M41.2478248,28.5372973 L46.4106897,20.9199459 L52.5040951,28.5372973 L41.2478248,28.5372973 L41.2478248,28.5372973 Z" id="Imported-Layers"></path>
                </g>
            </g>
        </g>
    </g>
</svg>