<?xml version="1.0" encoding="UTF-8" standalone="no"?>
<svg width="281px" height="321px" viewBox="0 0 281 321" version="1.1" xmlns="http://www.w3.org/2000/svg" xmlns:xlink="http://www.w3.org/1999/xlink" xmlns:sketch="http://www.bohemiancoding.com/sketch/ns">
    <!-- Generator: Sketch 3.2.2 (9983) - http://www.bohemiancoding.com/sketch -->
    <title>klenly-ico-pink</title>
    <desc>Created with Sketch.</desc>
    <defs></defs>
    <g id="Page-1" stroke="none" stroke-width="1" fill="none" fill-rule="evenodd" sketch:type="MSPage">
        <g id="Artboard-2" sketch:type="MSArtboardGroup" transform="translate(-30.000000, -14.000000)" fill="#F58093">
            <g id="klenly-ico-pink" sketch:type="MSLayerGroup" transform="translate(30.000000, 14.000000)">
                <path d="M225.162,72.54 C227.518,71.371 230.113,70.766 232.879,70.766 C235.604,70.766 238.143,71.383 240.447,72.54 L225.162,72.54" id="Fill-1" sketch:type="MSShapeGroup"></path>
                <path d="M71.224,208.354 L71.224,208.55 L71.224,209.204 L71.224,211.893 L71.224,222.788 L71.224,244.842 C66.577,241.121 60.685,238.896 54.273,238.896 C47.373,238.896 41.074,241.475 36.285,245.718 L36.285,208.072 C36.285,186.52 43.969,167.912 59.183,152.649 C74.46,137.269 93.207,129.628 114.87,129.628 C136.541,129.628 155.223,137.453 170.537,152.768 C185.882,168.06 193.738,186.676 193.738,208.33 L193.88,238.068 L194.02,238.068 L194.02,284.263 L159.081,284.263 L159.081,208.354 C159.081,196.08 154.857,185.755 146.238,177.012 C137.676,168.328 127.493,164.003 115.293,164.003 C103.004,164.003 92.7,168.258 84.066,177.012 C75.448,185.755 71.224,196.08 71.224,208.354" id="Fill-2" sketch:type="MSShapeGroup"></path>
                <path d="M54.273,212.064 C84.079,212.065 108.252,236.237 108.252,266.041 C108.252,295.849 84.079,320.02 54.273,320.02 L54.273,293.189 C69.264,293.189 81.42,281.031 81.42,266.041 C81.42,251.053 69.264,238.896 54.273,238.896 L54.273,212.064 L54.273,212.064 Z M54.273,212.064 L54.273,238.896 C39.284,238.896 27.127,251.053 27.127,266.041 C27.127,281.031 39.284,293.189 54.273,293.189 L54.273,320.02 C24.467,320.02 0.295,295.85 0.295,266.041 C0.295,236.236 24.467,212.064 54.273,212.064 L54.273,212.064 Z" id="Fill-3" sketch:type="MSShapeGroup"></path>
                <path d="M54.274,278.352 C61.055,278.352 66.586,272.822 66.586,266.041 C66.586,259.26 61.055,253.729 54.274,253.729 C47.493,253.729 41.963,259.26 41.963,266.041 C41.963,272.822 47.493,278.352 54.274,278.352" id="Fill-4" sketch:type="MSShapeGroup"></path>
                <path d="M198.874,39.108 C214.304,45.862 225.155,61.294 225.155,79.14 C225.155,145.236 224.442,215.348 224.106,284.263 L259.927,284.263 L259.927,91.517 L259.918,91.517 L259.927,79.14 C259.927,78.755 259.917,78.371 259.911,77.985 C259.294,54.496 239.891,35.474 216.26,35.474 C210.089,35.474 204.208,36.773 198.874,39.108" id="Fill-5" sketch:type="MSShapeGroup"></path>
                <path d="M181.49,0.704 L181.49,0.704 C138.347,0.704 103.052,36.001 103.052,79.14 L103.052,139.885 L137.822,139.885 L137.822,79.14 C137.822,78.735 137.828,78.333 137.839,77.931 C138.399,41.29 164.406,10.538 198.875,2.661 C193.279,1.382 187.459,0.704 181.49,0.704" id="Fill-6" sketch:type="MSShapeGroup"></path>
                <path d="M280.604,270.977 L280.604,284.263 L204.364,284.263 L204.364,270.977 C204.364,261.369 212.225,253.509 221.833,253.509 L263.136,253.509 C272.743,253.509 280.604,261.369 280.604,270.977" id="Fill-7" sketch:type="MSShapeGroup"></path>
                <path d="M194.02,270.977 L194.02,284.263 L131.009,284.263 L131.009,270.977 C131.009,261.369 138.869,253.509 148.478,253.509 L176.551,253.509 C186.159,253.509 194.02,261.369 194.02,270.977" id="Fill-8" sketch:type="MSShapeGroup"></path>
            </g>
        </g>
    </g>
</svg>