<?xml version="1.0" encoding="UTF-8" standalone="no"?>
<svg width="281px" height="287px" viewBox="0 0 281 287" version="1.1" xmlns="http://www.w3.org/2000/svg" xmlns:xlink="http://www.w3.org/1999/xlink" xmlns:sketch="http://www.bohemiancoding.com/sketch/ns">
    <!-- Generator: Sketch 3.3.2 (12043) - http://www.bohemiancoding.com/sketch -->
    <title>klenly-ico-watermelon</title>
    <desc>Created with Sketch.</desc>
    <defs></defs>
    <g id="Page-1" stroke="none" stroke-width="1" fill="none" fill-rule="evenodd" sketch:type="MSPage">
        <g id="klenly-ico-watermelon" sketch:type="MSArtboardGroup" transform="translate(-30.000000, -27.000000)" fill="#F68093">
            <g sketch:type="MSLayerGroup" transform="translate(30.000000, 27.000000)">
                <path d="M228.090492,53.9819297 C205.677721,31.1131506 174.708734,16.9645523 140.501467,16.9645523 C106.297133,16.9645523 75.3281454,31.1131506 52.9095084,53.9819297 C30.496738,76.8477163 16.6313845,108.445654 16.6313845,143.34134 C16.6313845,178.237026 30.496738,209.831971 52.9095084,232.70075 C75.3281454,255.569529 106.297133,269.712143 140.501467,269.712143 C174.708734,269.712143 205.677721,255.569529 228.090492,232.70075 C250.506195,209.831971 264.371549,178.237026 264.371549,143.34134 C264.371549,108.445654 250.506195,76.8477163 228.090492,53.9819297 L228.090492,53.9819297 Z M140.501467,0 C179.296297,0 214.421664,16.045851 239.84979,41.9879403 C265.274982,67.9270371 281,103.75938 281,143.34134 C281,182.917315 265.274982,218.755643 239.84979,244.69474 C214.421664,270.633836 179.296297,286.679687 140.501467,286.679687 C101.706636,286.679687 66.5812691,270.633836 41.1560768,244.69474 C15.7308845,218.755643 0,182.917315 0,143.34134 C0,103.75938 15.7308845,67.9270371 41.1560768,41.9879403 C66.5812691,16.045851 101.706636,0 140.501467,0 L140.501467,0 Z" id="Fill-23" sketch:type="MSShapeGroup"></path>
                <path d="M235.20525,128.094613 C235.200096,128.078836 235.200096,128.065688 235.194941,128.052541 C235.145969,127.9421 235.068646,127.855326 235.009365,127.755404 C234.93462,127.623927 234.877916,127.484562 234.782551,127.366233 L201.711479,85.1885482 C201.531058,84.9571495 201.314554,84.7678232 201.082585,84.5995332 C201.061965,84.583756 201.051655,84.5600902 201.031036,84.5469425 C201.000107,84.5259063 200.964023,84.5232768 200.933093,84.50487 C200.621224,84.3050257 200.286157,84.1525128 199.925316,84.0736269 C199.884077,84.0657383 199.847993,84.0683678 199.806754,84.0604792 C199.636643,84.0315544 199.466533,84 199.291267,84 L82.1597205,84 C81.9844549,84 81.8169216,84.0315544 81.6493883,84.0604792 C81.6055719,84.0657383 81.5643329,84.0657383 81.523094,84.0736269 C81.162253,84.1525128 80.8297639,84.3050257 80.5178942,84.50487 C80.486965,84.5232768 80.4508809,84.5232768 80.4199517,84.5469425 C80.3967548,84.5600902 80.3890224,84.583756 80.3658255,84.5995332 C80.1364338,84.7678232 79.9199292,84.9571495 79.7369313,85.1885482 L46.6632817,127.366233 C46.570494,127.484562 46.5137905,127.623927 46.4416223,127.752774 C46.3823413,127.855326 46.3024408,127.9421 46.2534695,128.052541 C46.2483146,128.065688 46.2483146,128.081466 46.2405823,128.094613 C46.1658367,128.27868 46.1271752,128.473266 46.0833588,128.667851 C46.0627393,128.765144 46.0240778,128.859807 46.0111906,128.9571 C45.9879937,129.154314 46.0060357,129.354159 46.0189229,129.554003 C46.0266552,129.651296 46.0111906,129.748588 46.0266552,129.845881 C46.0498521,129.995764 46.1117106,130.137759 46.1581044,130.285013 C46.2019208,130.424378 46.2276951,130.569002 46.2895536,130.703108 C46.292131,130.705738 46.292131,130.708367 46.292131,130.710997 C46.4081156,130.958173 46.5627617,131.179054 46.730295,131.381528 C46.7483371,131.405193 46.7586468,131.434118 46.7766889,131.455154 L138.417401,235.489937 C138.543695,235.634562 138.688031,235.75815 138.837522,235.876479 C138.852987,235.889626 138.868452,235.908033 138.883916,235.918551 C139.118463,236.09473 139.378784,236.223577 139.649415,236.328758 C139.71385,236.352424 139.778286,236.37346 139.8453,236.394496 C140.131395,236.478641 140.422645,236.539121 140.724205,236.539121 C141.028342,236.539121 141.319593,236.478641 141.600533,236.394496 C141.670124,236.37346 141.73456,236.352424 141.798996,236.328758 C142.072204,236.223577 142.329947,236.09473 142.561916,235.918551 C142.582536,235.908033 142.592846,235.889626 142.610888,235.876479 C142.760379,235.75815 142.902138,235.634562 143.03101,235.489937 L234.669144,131.455154 C234.687186,131.434118 234.697496,131.405193 234.715538,131.381528 C234.885648,131.179054 235.040295,130.958173 235.156279,130.710997 C235.158857,130.708367 235.158857,130.705738 235.158857,130.703108 C235.220715,130.571632 235.243912,130.429637 235.285151,130.292902 C235.334122,130.143018 235.398558,129.998394 235.421755,129.843252 C235.434642,129.751218 235.421755,129.656555 235.429487,129.559262 C235.442374,129.359418 235.462994,129.156944 235.43722,128.9571 C235.42691,128.859807 235.385671,128.767773 235.365051,128.667851 C235.321235,128.473266 235.282573,128.27868 235.20525,128.094613 L235.20525,128.094613 Z M193.445644,90.3292822 L171.161138,123.866327 L146.871388,90.3292822 L193.445644,90.3292822 L193.445644,90.3292822 Z M165.122208,126.177685 L116.323625,126.177685 L140.724205,92.4881276 L165.122208,126.177685 L165.122208,126.177685 Z M134.577022,90.3292822 L110.287272,123.866327 L88.0079212,90.3292822 L134.577022,90.3292822 L134.577022,90.3292822 Z M81.9509482,92.4907571 L104.330819,126.177685 L55.534814,126.177685 L81.9509482,92.4907571 L81.9509482,92.4907571 Z M56.0374139,132.504337 L107.869637,132.504337 L133.785749,220.767191 L56.0374139,132.504337 L56.0374139,132.504337 Z M140.724205,222.352798 L114.341577,132.504337 L167.106833,132.504337 L140.724205,222.352798 L140.724205,222.352798 Z M147.660083,220.767191 L173.576195,132.504337 L225.408419,132.504337 L147.660083,220.767191 L147.660083,220.767191 Z M177.117591,126.177685 L199.497462,92.4907571 L225.911019,126.177685 L177.117591,126.177685 L177.117591,126.177685 Z" id="Imported-Layers" sketch:type="MSShapeGroup"></path>
            </g>
        </g>
    </g>
</svg>