<?xml version="1.0" encoding="UTF-8" standalone="no"?>
<svg width="401px" height="185px" viewBox="0 0 401 185" version="1.1" xmlns="http://www.w3.org/2000/svg" xmlns:xlink="http://www.w3.org/1999/xlink" xmlns:sketch="http://www.bohemiancoding.com/sketch/ns">
    <!-- Generator: Sketch 3.2.2 (9983) - http://www.bohemiancoding.com/sketch -->
    <title>logo-white-isolated</title>
    <desc>Created with Sketch.</desc>
    <defs></defs>
    <g id="Page-1" stroke="none" stroke-width="1" fill="none" fill-rule="evenodd" sketch:type="MSPage">
        <g id="Artboard-1" sketch:type="MSArtboardGroup" transform="translate(-150.000000, -74.000000)" fill="#FFFFFF">
            <g id="logo-white-isolated" sketch:type="MSLayerGroup" transform="translate(150.000000, 74.000000)">
                <path d="M139.873,124.94 C140.117,124.947 140.362,124.95 140.609,124.95 L145.117,124.95 L149.626,124.95 L149.717,124.95 L149.808,124.955 C155.075,125.232 158.435,128.399 158.435,133.76 C158.435,138.894 155.228,141.997 150.194,142.416 L150.138,142.421 L150.081,142.424 C146.945,142.581 143.748,142.568 140.609,142.568 C140.363,142.568 140.117,142.566 139.873,142.563 L139.873,124.94 L139.873,124.94 Z M139.873,63.668 C140.117,63.664 140.363,63.661 140.609,63.661 C148.545,63.661 155.859,65.898 162.462,70.301 C169.104,74.729 173.981,80.685 177.055,88.063 C178.285,91.06 179.565,94.702 179.707,97.964 L179.71,98.038 L179.71,98.113 L179.71,108.822 L179.71,112.277 L139.873,112.277 L139.873,94.658 L159.592,94.658 C158.38,91.345 156.531,88.373 153.891,85.847 C150.153,82.445 145.8,80.857 140.75,80.857 C140.455,80.857 140.163,80.863 139.873,80.874 L139.873,63.668 L139.873,63.668 Z M120.452,112.277 C121.847,115.36 123.942,117.995 126.753,120.195 C130.636,123.254 134.986,124.8 139.873,124.94 L139.873,142.563 C129.311,142.391 120.179,138.505 112.664,130.99 C104.975,123.302 101.085,113.919 101.085,103.045 C101.085,92.215 105.009,82.895 112.664,75.24 C120.179,67.727 129.311,63.84 139.873,63.668 L139.873,80.874 C134.916,81.049 130.554,82.728 126.67,85.919 C123.692,88.366 121.527,91.267 120.154,94.658 L139.873,94.658 L139.873,112.277 L120.452,112.277 L120.452,112.277 Z" id="Fill-85" sketch:type="MSShapeGroup"></path>
                <path d="M346.253,141.021 C338.221,140.214 327.295,134.993 320.422,127.078 C312.865,118.372 309.62,107.888 309.62,96.423 L309.62,84.588 L309.62,72.894 C309.62,70.496 310.56,68.382 312.354,66.788 C314.011,65.315 315.992,64.507 318.219,64.507 C320.547,64.507 322.646,65.343 324.28,66.977 C325.955,68.613 326.816,70.695 326.816,73.034 L326.816,96.423 C326.816,104.226 328.913,111.344 334.479,116.955 C340.068,122.59 347.24,124.668 355.062,124.668 C362.849,124.668 369.94,122.564 375.506,116.977 C381.065,111.373 383.167,104.29 383.167,96.493 L383.167,73.011 C383.167,70.659 384.087,68.565 385.787,66.942 C387.418,65.384 389.433,64.507 391.694,64.507 C394.013,64.507 396.092,65.358 397.731,66.998 C399.37,68.638 400.223,70.717 400.223,73.034 L400.223,96.517 C400.223,108.019 396.9,118.484 389.294,127.182 C382.399,135.065 371.417,140.238 363.473,141.021 C355.527,141.803 354.284,141.828 346.253,141.021" id="Fill-86" sketch:type="MSShapeGroup"></path>
                <path d="M282.737,36.512 C283.916,35.927 285.215,35.624 286.598,35.624 C287.961,35.624 289.231,35.934 290.385,36.512 L282.737,36.512" id="Fill-87" sketch:type="MSShapeGroup"></path>
                <path d="M205.728,104.454 L205.728,104.552 L205.728,104.879 L205.728,106.224 L205.728,111.675 L205.728,122.707 C203.404,120.846 200.457,119.732 197.249,119.732 C193.797,119.732 190.647,121.023 188.251,123.146 L188.251,104.314 C188.251,93.531 192.094,84.223 199.705,76.587 C207.348,68.893 216.726,65.07 227.564,65.07 C238.404,65.07 247.75,68.984 255.411,76.647 C263.087,84.297 267.018,93.608 267.018,104.441 L267.089,119.318 L267.158,119.318 L267.158,142.428 L249.68,142.428 L249.68,104.454 C249.68,98.314 247.566,93.148 243.255,88.775 C238.972,84.431 233.878,82.267 227.775,82.267 C221.627,82.267 216.472,84.396 212.153,88.775 C207.842,93.148 205.728,98.314 205.728,104.454" id="Fill-88" sketch:type="MSShapeGroup"></path>
                <path d="M95.148,134.042 C95.148,136.508 94.105,138.644 92.214,140.219 C90.489,141.656 88.444,142.428 86.198,142.428 C83.789,142.428 81.674,141.458 80.052,139.683 C78.504,137.986 77.67,135.917 77.67,133.619 L77.67,44.011 C77.67,41.691 78.617,39.654 80.29,38.059 C81.958,36.466 84.031,35.624 86.338,35.624 C88.726,35.624 90.832,36.573 92.515,38.256 C94.198,39.939 95.148,42.046 95.148,44.434 L95.148,134.042" id="Fill-89" sketch:type="MSShapeGroup"></path>
                <path d="M197.25,106.31 C212.16,106.31 224.252,118.402 224.252,133.313 C224.252,148.224 212.16,160.315 197.25,160.315 L197.25,146.893 C204.748,146.893 210.829,140.811 210.829,133.313 C210.829,125.814 204.748,119.732 197.25,119.732 L197.25,106.31 L197.25,106.31 Z M197.249,106.31 L197.25,106.31 L197.25,119.732 L197.249,119.732 C189.751,119.732 183.669,125.814 183.669,133.313 C183.669,140.812 189.751,146.893 197.249,146.893 L197.25,146.893 L197.25,160.315 L197.249,160.315 C182.338,160.315 170.246,148.224 170.246,133.313 C170.246,118.402 182.338,106.31 197.249,106.31 L197.249,106.31 Z" id="Fill-90" sketch:type="MSShapeGroup"></path>
                <path d="M197.25,139.472 C200.642,139.472 203.408,136.704 203.408,133.313 C203.408,129.92 200.642,127.153 197.25,127.153 C193.857,127.153 191.091,129.92 191.091,133.313 C191.091,136.704 193.857,139.472 197.25,139.472" id="Fill-91" sketch:type="MSShapeGroup"></path>
                <path d="M269.587,19.787 C277.306,23.166 282.734,30.886 282.734,39.814 C282.734,72.879 282.378,107.952 282.21,142.428 L300.129,142.428 L300.129,46.005 L300.125,46.005 L300.129,39.814 C300.129,39.621 300.124,39.429 300.121,39.235 C299.812,27.485 290.106,17.969 278.284,17.969 C275.197,17.969 272.255,18.619 269.587,19.787" id="Fill-92" sketch:type="MSShapeGroup"></path>
                <path d="M260.891,0.575 L260.891,0.575 C239.308,0.575 221.651,18.235 221.651,39.814 L221.651,53.003 L239.045,53.003 L239.045,39.814 C239.045,39.611 239.048,39.41 239.054,39.209 C239.334,20.879 252.345,5.495 269.588,1.555 C266.788,0.914 263.876,0.575 260.891,0.575" id="Fill-93" sketch:type="MSShapeGroup"></path>
                <path d="M310.473,135.782 L310.473,142.428 L272.333,142.428 L272.333,135.782 C272.333,130.975 276.266,127.043 281.072,127.043 L301.734,127.043 C306.541,127.043 310.473,130.975 310.473,135.782" id="Fill-94" sketch:type="MSShapeGroup"></path>
                <path d="M267.158,135.782 L267.158,142.428 L235.637,142.428 L235.637,135.782 C235.637,130.975 239.569,127.043 244.375,127.043 L258.42,127.043 C263.227,127.043 267.158,130.975 267.158,135.782" id="Fill-95" sketch:type="MSShapeGroup"></path>
                <path d="M334.798,181.054 C318.845,176.157 326.233,155.603 338.486,163.644 C343.331,166.824 349.002,168.073 355.062,168.073 C362.849,168.073 369.94,165.969 375.506,160.382 C381.065,154.778 383.167,147.695 383.167,139.898 L383.167,87.992 C383.167,85.64 384.087,83.545 385.787,81.923 C387.418,80.365 389.433,79.487 391.694,79.487 C394.013,79.487 396.092,80.339 397.731,81.979 C399.37,83.618 400.223,85.697 400.223,88.016 L400.223,139.922 C400.223,151.423 396.9,161.889 389.294,170.587 C382.399,178.47 371.417,183.644 363.473,184.426 C352.462,185.51 345.079,184.209 334.798,181.054" id="Fill-96" sketch:type="MSShapeGroup"></path>
                <path d="M17.808,134.042 C17.808,136.508 16.765,138.644 14.874,140.219 C13.15,141.656 11.105,142.428 8.858,142.428 C6.449,142.428 4.335,141.458 2.713,139.683 C1.165,137.986 0.331,135.917 0.331,133.619 L0.331,44.011 C0.331,41.691 1.277,39.654 2.95,38.059 C4.618,36.466 6.691,35.624 8.999,35.624 C11.386,35.624 13.492,36.573 15.175,38.256 C16.858,39.939 17.808,42.046 17.808,44.434 L17.808,134.042" id="Fill-97" sketch:type="MSShapeGroup"></path>
                <path d="M16.378,109.761 C14.296,111.081 11.934,111.346 9.591,110.593 C7.453,109.906 5.706,108.593 4.502,106.695 C3.212,104.662 2.898,102.356 3.528,100.036 C4.131,97.821 5.433,96.01 7.372,94.776 L54.711,64.65 C56.668,63.405 58.897,63.116 61.14,63.673 C63.379,64.229 65.2,65.528 66.436,67.477 C67.715,69.492 68.043,71.78 67.523,74.102 C67.004,76.424 65.73,78.352 63.717,79.635 L16.378,109.761" id="Fill-98" sketch:type="MSShapeGroup"></path>
                <path d="M29.536,103.66 C27.343,102.532 25.92,100.627 25.385,98.226 C24.896,96.035 25.145,93.862 26.172,91.864 C27.274,89.723 29.104,88.285 31.425,87.656 C33.64,87.056 35.852,87.28 37.906,88.312 L69.603,125.135 C71.117,126.893 73.044,128.774 73.698,130.991 C74.352,133.203 74.152,135.432 73.097,137.484 C72.004,139.606 70.196,141.046 67.931,141.773 C65.666,142.499 63.367,142.357 61.233,141.288 L29.536,103.66" id="Fill-99" sketch:type="MSShapeGroup"></path>
            </g>
        </g>
    </g>
</svg>