<?xml version="1.0" encoding="UTF-8" standalone="no"?>
<svg width="401px" height="190px" viewBox="0 0 401 190" version="1.1" xmlns="http://www.w3.org/2000/svg" xmlns:xlink="http://www.w3.org/1999/xlink" xmlns:sketch="http://www.bohemiancoding.com/sketch/ns">
    <!-- Generator: Sketch 3.2.2 (9983) - http://www.bohemiancoding.com/sketch -->
    <title>logo-pink</title>
    <desc>Created with Sketch.</desc>
    <defs></defs>
    <g id="Page-1" stroke="none" stroke-width="1" fill="none" fill-rule="evenodd" sketch:type="MSPage">
        <g id="Artboard-1" sketch:type="MSArtboardGroup" transform="translate(-150.000000, -74.000000)" fill="#EF536D">
            <g id="logo-pink" sketch:type="MSLayerGroup" transform="translate(150.000000, 74.000000)">
                <path d="M3.712,172.319 L6.023,180.242 L8.129,172.878 C8.35,172.106 8.519,171.583 8.629,171.3 C8.736,171.021 8.94,170.75 9.237,170.492 C9.539,170.24 9.946,170.111 10.465,170.111 C10.993,170.111 11.41,170.24 11.707,170.492 C12.004,170.75 12.216,171.029 12.336,171.326 C12.456,171.623 12.624,172.143 12.842,172.878 L14.948,180.242 L17.284,172.319 C17.444,171.747 17.568,171.335 17.661,171.078 C17.759,170.825 17.919,170.6 18.145,170.404 C18.371,170.209 18.694,170.111 19.116,170.111 C19.541,170.111 19.909,170.258 20.224,170.555 C20.534,170.848 20.69,171.193 20.69,171.592 C20.69,171.956 20.557,172.506 20.286,173.241 L17.391,181.736 C17.138,182.455 16.943,182.974 16.806,183.298 C16.668,183.617 16.446,183.9 16.149,184.153 C15.852,184.406 15.44,184.53 14.921,184.53 C14.385,184.53 13.963,184.397 13.653,184.126 C13.347,183.86 13.121,183.528 12.975,183.138 C12.824,182.752 12.665,182.242 12.492,181.621 L10.465,174.709 L8.506,181.621 C8.244,182.584 7.964,183.307 7.659,183.794 C7.357,184.286 6.825,184.53 6.062,184.53 C5.672,184.53 5.34,184.455 5.069,184.304 C4.794,184.153 4.568,183.936 4.387,183.652 C4.205,183.373 4.045,183.04 3.903,182.654 C3.766,182.269 3.66,181.963 3.58,181.736 L0.711,173.241 C0.423,172.443 0.281,171.894 0.281,171.592 C0.281,171.211 0.432,170.869 0.738,170.568 C1.039,170.262 1.412,170.111 1.855,170.111 C2.44,170.111 2.839,170.28 3.047,170.612 C3.256,170.945 3.478,171.513 3.712,172.319" id="Fill-1" sketch:type="MSShapeGroup"></path>
                <path d="M28.511,166.994 L28.511,172.253 C28.963,171.734 29.402,171.321 29.828,171.021 C30.258,170.719 30.732,170.488 31.251,170.338 C31.77,170.187 32.329,170.111 32.927,170.111 C33.827,170.111 34.629,170.302 35.326,170.684 C36.022,171.064 36.571,171.619 36.966,172.346 C37.219,172.768 37.387,173.241 37.476,173.77 C37.56,174.292 37.604,174.896 37.604,175.578 L37.604,182.375 C37.604,183.085 37.44,183.621 37.117,183.984 C36.793,184.349 36.363,184.53 35.827,184.53 C34.656,184.53 34.071,183.812 34.071,182.375 L34.071,176.386 C34.071,175.25 33.902,174.377 33.565,173.77 C33.229,173.157 32.586,172.852 31.641,172.852 C31.012,172.852 30.44,173.033 29.934,173.393 C29.429,173.752 29.047,174.244 28.794,174.864 C28.604,175.392 28.511,176.332 28.511,177.685 L28.511,182.375 C28.511,183.075 28.351,183.607 28.037,183.976 C27.722,184.344 27.283,184.53 26.72,184.53 C25.549,184.53 24.964,183.812 24.964,182.375 L24.964,166.994 C24.964,166.276 25.119,165.739 25.425,165.381 C25.731,165.022 26.166,164.84 26.72,164.84 C27.283,164.84 27.722,165.022 28.037,165.385 C28.351,165.748 28.511,166.285 28.511,166.994" id="Fill-2" sketch:type="MSShapeGroup"></path>
                <path d="M52.919,178.189 L49.199,178.189 L49.199,176.177 L52.414,176.177 C52.33,174.966 52.002,174.058 51.434,173.459 C50.867,172.856 50.124,172.556 49.199,172.555 L49.199,170.085 L49.31,170.085 C50.698,170.085 51.886,170.378 52.875,170.963 C53.868,171.548 54.608,172.302 55.106,173.229 C55.597,174.155 55.846,175.1 55.846,176.062 C55.846,176.953 55.588,177.529 55.079,177.795 C54.569,178.057 53.846,178.189 52.919,178.189 L52.919,178.189 Z M49.199,182.171 C49.287,182.177 49.376,182.18 49.465,182.18 C49.891,182.18 50.277,182.132 50.627,182.029 C50.977,181.932 51.319,181.776 51.647,181.564 C51.979,181.351 52.281,181.125 52.556,180.881 C52.835,180.637 53.194,180.309 53.638,179.893 C53.819,179.737 54.077,179.657 54.413,179.657 C54.777,179.657 55.074,179.76 55.3,179.959 C55.522,180.158 55.637,180.437 55.637,180.801 C55.637,181.12 55.509,181.497 55.26,181.928 C55.007,182.353 54.631,182.766 54.121,183.16 C53.615,183.555 52.981,183.883 52.214,184.14 C51.447,184.401 50.565,184.53 49.572,184.53 C49.446,184.53 49.322,184.528 49.199,184.524 L49.199,182.171 L49.199,182.171 Z M49.199,178.189 L45.985,178.189 C45.994,178.996 46.158,179.706 46.473,180.322 C46.787,180.939 47.209,181.399 47.732,181.71 C48.181,181.98 48.671,182.132 49.199,182.171 L49.199,184.524 C47.099,184.457 45.45,183.811 44.256,182.584 C42.992,181.284 42.358,179.52 42.358,177.294 C42.358,176.248 42.513,175.273 42.828,174.377 C43.139,173.481 43.595,172.714 44.19,172.071 C44.788,171.433 45.524,170.94 46.402,170.6 C47.245,170.27 48.179,170.097 49.199,170.085 L49.199,172.555 L49.195,172.555 C48.308,172.555 47.585,172.86 47.018,173.468 C46.451,174.08 46.104,174.984 45.985,176.177 L49.199,176.177 L49.199,178.189 L49.199,178.189 Z" id="Fill-3" sketch:type="MSShapeGroup"></path>
                <path d="M64.261,179.409 L64.261,182.375 C64.261,183.094 64.093,183.63 63.756,183.989 C63.419,184.349 62.989,184.53 62.47,184.53 C61.956,184.53 61.539,184.349 61.206,183.984 C60.878,183.621 60.714,183.085 60.714,182.375 L60.714,172.501 C60.714,170.909 61.29,170.111 62.443,170.111 C63.033,170.111 63.454,170.298 63.716,170.67 C63.978,171.043 64.119,171.592 64.146,172.319 C64.567,171.592 65.001,171.043 65.449,170.67 C65.897,170.298 66.492,170.111 67.236,170.111 C67.981,170.111 68.704,170.298 69.404,170.67 C70.105,171.043 70.455,171.534 70.455,172.151 C70.455,172.581 70.309,172.94 70.007,173.22 C69.71,173.503 69.387,173.641 69.041,173.641 C68.912,173.641 68.597,173.561 68.101,173.401 C67.6,173.241 67.161,173.162 66.779,173.162 C66.261,173.162 65.835,173.299 65.507,173.569 C65.179,173.845 64.922,174.248 64.74,174.784 C64.558,175.321 64.434,175.96 64.363,176.704 C64.296,177.445 64.261,178.345 64.261,179.409" id="Fill-4" sketch:type="MSShapeGroup"></path>
                <path d="M83.539,178.189 L79.819,178.189 L79.819,176.177 L83.034,176.177 C82.95,174.966 82.622,174.058 82.054,173.459 C81.487,172.856 80.744,172.556 79.819,172.555 L79.819,170.085 L79.93,170.085 C81.318,170.085 82.506,170.378 83.495,170.963 C84.488,171.548 85.229,172.302 85.726,173.229 C86.217,174.155 86.466,175.1 86.466,176.062 C86.466,176.953 86.209,177.529 85.699,177.795 C85.189,178.057 84.466,178.189 83.539,178.189 L83.539,178.189 Z M79.819,182.171 C79.907,182.177 79.996,182.18 80.085,182.18 C80.511,182.18 80.897,182.132 81.247,182.029 C81.597,181.932 81.939,181.776 82.267,181.564 C82.599,181.351 82.901,181.125 83.176,180.881 C83.455,180.637 83.815,180.309 84.258,179.893 C84.44,179.737 84.697,179.657 85.033,179.657 C85.397,179.657 85.694,179.76 85.92,179.959 C86.142,180.158 86.257,180.437 86.257,180.801 C86.257,181.12 86.129,181.497 85.88,181.928 C85.627,182.353 85.251,182.766 84.741,183.16 C84.235,183.555 83.602,183.883 82.835,184.14 C82.067,184.401 81.185,184.53 80.192,184.53 C80.066,184.53 79.942,184.528 79.819,184.524 L79.819,182.171 L79.819,182.171 Z M79.819,178.189 L76.605,178.189 C76.614,178.996 76.778,179.706 77.093,180.322 C77.407,180.939 77.829,181.399 78.352,181.71 C78.801,181.98 79.292,182.132 79.819,182.171 L79.819,184.524 C77.719,184.457 76.07,183.811 74.876,182.584 C73.612,181.284 72.978,179.52 72.978,177.294 C72.978,176.248 73.133,175.273 73.448,174.377 C73.759,173.481 74.215,172.714 74.81,172.071 C75.408,171.433 76.144,170.94 77.022,170.6 C77.865,170.27 78.799,170.097 79.819,170.085 L79.819,172.555 L79.815,172.555 C78.928,172.555 78.206,172.86 77.638,173.468 C77.071,174.08 76.725,174.984 76.605,176.177 L79.819,176.177 L79.819,178.189 L79.819,178.189 Z" id="Fill-5" sketch:type="MSShapeGroup"></path>
                <path d="M110.732,180.136 C110.732,180.579 110.599,181.05 110.333,181.555 C110.071,182.056 109.668,182.535 109.127,182.991 C108.586,183.443 107.903,183.812 107.079,184.087 C106.258,184.366 105.332,184.503 104.303,184.503 C102.108,184.503 100.401,183.865 99.169,182.588 C97.941,181.311 97.324,179.6 97.324,177.449 C97.324,175.995 97.604,174.709 98.167,173.592 C98.73,172.475 99.546,171.61 100.61,171.003 C101.678,170.391 102.951,170.085 104.432,170.085 C105.35,170.085 106.192,170.218 106.959,170.488 C107.721,170.754 108.374,171.101 108.905,171.525 C109.438,171.951 109.845,172.403 110.125,172.883 C110.408,173.366 110.55,173.814 110.55,174.226 C110.55,174.651 110.391,175.011 110.076,175.308 C109.757,175.601 109.375,175.747 108.923,175.747 C108.63,175.747 108.387,175.671 108.191,175.521 C107.996,175.37 107.779,175.122 107.535,174.784 C107.101,174.128 106.648,173.636 106.179,173.304 C105.704,172.976 105.105,172.812 104.378,172.812 C103.332,172.812 102.485,173.22 101.847,174.04 C101.204,174.855 100.884,175.978 100.884,177.397 C100.884,178.065 100.969,178.678 101.133,179.236 C101.297,179.795 101.532,180.269 101.847,180.664 C102.157,181.059 102.534,181.356 102.978,181.56 C103.417,181.764 103.904,181.865 104.432,181.865 C105.141,181.865 105.749,181.701 106.254,181.373 C106.764,181.041 107.212,180.54 107.602,179.865 C107.815,179.467 108.05,179.156 108.302,178.931 C108.55,178.704 108.861,178.593 109.225,178.593 C109.659,178.593 110.018,178.757 110.302,179.085 C110.586,179.413 110.732,179.764 110.732,180.136" id="Fill-6" sketch:type="MSShapeGroup"></path>
                <path d="M115.068,182.375 L115.068,166.994 C115.068,166.285 115.228,165.748 115.543,165.385 C115.858,165.022 116.283,164.84 116.824,164.84 C117.36,164.84 117.791,165.022 118.124,165.381 C118.451,165.739 118.615,166.276 118.615,166.994 L118.615,182.375 C118.615,183.094 118.447,183.63 118.114,183.989 C117.782,184.349 117.352,184.53 116.824,184.53 C116.301,184.53 115.88,184.344 115.556,183.972 C115.232,183.599 115.068,183.066 115.068,182.375" id="Fill-7" sketch:type="MSShapeGroup"></path>
                <path d="M134.085,178.189 L130.365,178.189 L130.365,176.177 L133.58,176.177 C133.496,174.966 133.168,174.058 132.6,173.459 C132.033,172.856 131.29,172.556 130.365,172.555 L130.365,170.085 L130.476,170.085 C131.864,170.085 133.052,170.378 134.041,170.963 C135.034,171.548 135.775,172.302 136.272,173.229 C136.764,174.155 137.012,175.1 137.012,176.062 C137.012,176.953 136.754,177.529 136.245,177.795 C135.735,178.057 135.012,178.189 134.085,178.189 L134.085,178.189 Z M130.365,182.171 C130.453,182.177 130.542,182.18 130.632,182.18 C131.057,182.18 131.443,182.132 131.793,182.029 C132.143,181.932 132.485,181.776 132.813,181.564 C133.146,181.351 133.447,181.125 133.722,180.881 C134.001,180.637 134.36,180.309 134.804,179.893 C134.985,179.737 135.243,179.657 135.58,179.657 C135.943,179.657 136.24,179.76 136.466,179.959 C136.688,180.158 136.803,180.437 136.803,180.801 C136.803,181.12 136.675,181.497 136.426,181.928 C136.174,182.353 135.797,182.766 135.287,183.16 C134.781,183.555 134.147,183.883 133.38,184.14 C132.613,184.401 131.731,184.53 130.738,184.53 C130.612,184.53 130.488,184.528 130.365,184.524 L130.365,182.171 L130.365,182.171 Z M130.365,178.189 L127.151,178.189 C127.16,178.996 127.324,179.706 127.639,180.322 C127.954,180.939 128.375,181.399 128.898,181.71 C129.347,181.98 129.837,182.132 130.365,182.171 L130.365,184.524 C128.265,184.457 126.616,183.811 125.422,182.584 C124.158,181.284 123.524,179.52 123.524,177.294 C123.524,176.248 123.679,175.273 123.994,174.377 C124.305,173.481 124.761,172.714 125.355,172.071 C125.954,171.433 126.69,170.94 127.568,170.6 C128.411,170.27 129.345,170.097 130.365,170.085 L130.365,172.555 L130.361,172.555 C129.474,172.555 128.751,172.86 128.184,173.468 C127.617,174.08 127.271,174.984 127.151,176.177 L130.365,176.177 L130.365,178.189 L130.365,178.189 Z" id="Fill-8" sketch:type="MSShapeGroup"></path>
                <path d="M150.872,182.53 C150.012,183.195 149.183,183.696 148.385,184.029 C148.154,184.124 147.915,184.206 147.669,184.274 L147.669,182.143 C148.084,182.07 148.478,181.937 148.85,181.746 C149.444,181.44 149.879,181.041 150.158,180.558 C150.478,180.022 150.637,179.139 150.637,177.906 L150.637,177.4 C150.118,177.591 149.36,177.791 148.371,178.004 L147.669,178.156 L147.669,176.025 C147.992,175.955 148.29,175.887 148.566,175.822 C149.201,175.667 149.892,175.485 150.637,175.268 C150.593,174.332 150.406,173.645 150.074,173.211 C149.737,172.772 149.05,172.555 147.999,172.555 C147.885,172.555 147.775,172.557 147.669,172.561 L147.669,170.089 C147.777,170.086 147.887,170.085 147.999,170.085 C149.56,170.085 150.783,170.271 151.675,170.639 C152.566,171.007 153.195,171.588 153.564,172.386 C153.931,173.18 154.117,174.239 154.117,175.556 C154.117,176.386 154.113,177.095 154.109,177.671 C154.104,178.252 154.1,178.899 154.091,179.608 C154.091,180.273 154.202,180.97 154.423,181.692 C154.645,182.415 154.752,182.881 154.752,183.089 C154.752,183.452 154.583,183.785 154.242,184.082 C153.9,184.379 153.51,184.53 153.08,184.53 C152.716,184.53 152.357,184.357 152.002,184.016 C151.644,183.674 151.271,183.183 150.872,182.53 L150.872,182.53 Z M147.669,184.274 C147.057,184.444 146.397,184.53 145.689,184.53 C144.775,184.53 143.978,184.349 143.29,183.989 C142.603,183.63 142.071,183.147 141.699,182.53 C141.326,181.914 141.14,181.249 141.14,180.53 C141.14,179.56 141.446,178.735 142.062,178.048 C142.678,177.365 143.521,176.904 144.598,176.673 C144.82,176.62 145.378,176.505 146.274,176.323 C146.78,176.218 147.245,176.119 147.669,176.025 L147.669,178.156 C147.046,178.292 146.593,178.397 146.31,178.474 C145.928,178.571 145.565,178.766 145.219,179.059 C144.873,179.347 144.7,179.75 144.7,180.269 C144.7,180.811 144.904,181.267 145.312,181.644 C145.72,182.021 146.252,182.207 146.908,182.207 C147.169,182.207 147.422,182.186 147.669,182.143 L147.669,184.274 L147.669,184.274 Z M147.669,172.561 C146.931,172.588 146.364,172.71 145.968,172.932 C145.512,173.185 145.122,173.557 144.798,174.062 C144.474,174.563 144.244,174.896 144.11,175.055 C143.973,175.215 143.685,175.295 143.246,175.295 C142.847,175.295 142.501,175.166 142.213,174.909 C141.92,174.656 141.778,174.328 141.778,173.929 C141.778,173.309 141.996,172.701 142.439,172.111 C142.882,171.522 143.569,171.038 144.505,170.656 C145.366,170.306 146.418,170.116 147.669,170.089 L147.669,172.561 L147.669,172.561 Z" id="Fill-9" sketch:type="MSShapeGroup"></path>
                <path d="M162.848,172.071 L162.848,172.501 C163.473,171.677 164.156,171.073 164.892,170.687 C165.632,170.302 166.483,170.111 167.446,170.111 C168.381,170.111 169.215,170.315 169.951,170.724 C170.687,171.127 171.237,171.703 171.6,172.448 C171.835,172.883 171.986,173.348 172.057,173.854 C172.124,174.355 172.159,174.993 172.159,175.773 L172.159,182.375 C172.159,183.085 171.995,183.621 171.671,183.984 C171.348,184.349 170.926,184.53 170.403,184.53 C169.876,184.53 169.45,184.344 169.117,183.972 C168.789,183.599 168.625,183.066 168.625,182.375 L168.625,176.465 C168.625,175.295 168.461,174.398 168.137,173.778 C167.814,173.162 167.167,172.852 166.2,172.852 C165.566,172.852 164.989,173.037 164.471,173.415 C163.952,173.792 163.571,174.311 163.331,174.971 C163.158,175.498 163.069,176.482 163.069,177.933 L163.069,182.375 C163.069,183.094 162.901,183.63 162.569,183.989 C162.236,184.349 161.806,184.53 161.278,184.53 C160.764,184.53 160.347,184.344 160.015,183.972 C159.686,183.599 159.523,183.066 159.523,182.375 L159.523,172.124 C159.523,171.45 159.669,170.945 159.966,170.612 C160.259,170.28 160.662,170.111 161.172,170.111 C161.482,170.111 161.766,170.187 162.019,170.333 C162.267,170.48 162.471,170.701 162.622,170.994 C162.773,171.291 162.848,171.65 162.848,172.071" id="Fill-10" sketch:type="MSShapeGroup"></path>
                <path d="M183.971,170.427 L184.814,170.427 L184.814,169.362 C184.814,168.254 184.955,167.371 185.234,166.715 C185.518,166.063 185.993,165.584 186.667,165.287 C187.336,164.99 188.258,164.84 189.424,164.84 C191.495,164.84 192.528,165.345 192.528,166.36 C192.528,166.689 192.421,166.968 192.204,167.203 C191.987,167.438 191.734,167.553 191.437,167.553 C191.3,167.553 191.06,167.526 190.724,167.478 C190.387,167.425 190.103,167.398 189.868,167.398 C189.225,167.398 188.817,167.589 188.635,167.966 C188.453,168.342 188.36,168.879 188.36,169.579 L188.36,170.427 L189.229,170.427 C190.582,170.427 191.255,170.834 191.255,171.646 C191.255,172.227 191.078,172.594 190.719,172.749 C190.36,172.904 189.863,172.984 189.229,172.984 L188.36,172.984 L188.36,182.375 C188.36,183.075 188.191,183.612 187.859,183.981 C187.526,184.349 187.097,184.53 186.569,184.53 C186.064,184.53 185.647,184.349 185.314,183.981 C184.981,183.612 184.814,183.075 184.814,182.375 L184.814,172.984 L183.838,172.984 C183.31,172.984 182.902,172.864 182.618,172.625 C182.331,172.391 182.189,172.08 182.189,171.698 C182.189,170.852 182.783,170.427 183.971,170.427" id="Fill-11" sketch:type="MSShapeGroup"></path>
                <path d="M198.895,172.124 L198.895,182.375 C198.895,183.085 198.727,183.621 198.39,183.984 C198.053,184.349 197.623,184.53 197.104,184.53 C196.581,184.53 196.16,184.344 195.836,183.972 C195.512,183.599 195.348,183.066 195.348,182.375 L195.348,172.23 C195.348,171.525 195.512,170.998 195.836,170.644 C196.16,170.289 196.581,170.111 197.104,170.111 C197.623,170.111 198.053,170.289 198.39,170.644 C198.727,170.998 198.895,171.494 198.895,172.124 L198.895,172.124 Z M197.14,168.462 C196.647,168.462 196.226,168.312 195.875,168.006 C195.526,167.704 195.348,167.273 195.348,166.724 C195.348,166.219 195.53,165.806 195.889,165.482 C196.248,165.159 196.665,164.995 197.14,164.995 C197.601,164.995 198.008,165.141 198.363,165.439 C198.718,165.731 198.895,166.161 198.895,166.724 C198.895,167.27 198.722,167.695 198.376,168.001 C198.031,168.307 197.618,168.462 197.14,168.462 L197.14,168.462 Z" id="Fill-12" sketch:type="MSShapeGroup"></path>
                <path d="M207.692,172.071 L207.692,172.501 C208.317,171.677 209,171.073 209.736,170.687 C210.477,170.302 211.328,170.111 212.29,170.111 C213.226,170.111 214.059,170.315 214.795,170.724 C215.531,171.127 216.081,171.703 216.444,172.448 C216.68,172.883 216.83,173.348 216.901,173.854 C216.968,174.355 217.003,174.993 217.003,175.773 L217.003,182.375 C217.003,183.085 216.839,183.621 216.516,183.984 C216.191,184.349 215.771,184.53 215.247,184.53 C214.72,184.53 214.294,184.344 213.962,183.972 C213.634,183.599 213.47,183.066 213.47,182.375 L213.47,176.465 C213.47,175.295 213.306,174.398 212.981,173.778 C212.658,173.162 212.011,172.852 211.044,172.852 C210.41,172.852 209.834,173.037 209.315,173.415 C208.796,173.792 208.415,174.311 208.176,174.971 C208.003,175.498 207.914,176.482 207.914,177.933 L207.914,182.375 C207.914,183.094 207.745,183.63 207.413,183.989 C207.08,184.349 206.65,184.53 206.123,184.53 C205.608,184.53 205.191,184.344 204.859,183.972 C204.531,183.599 204.367,183.066 204.367,182.375 L204.367,172.124 C204.367,171.45 204.514,170.945 204.811,170.612 C205.104,170.28 205.507,170.111 206.017,170.111 C206.327,170.111 206.61,170.187 206.863,170.333 C207.111,170.48 207.315,170.701 207.466,170.994 C207.617,171.291 207.692,171.65 207.692,172.071" id="Fill-13" sketch:type="MSShapeGroup"></path>
                <path d="M232.162,182.504 L232.162,182.153 C231.689,182.699 231.218,183.143 230.753,183.483 C230.291,183.825 229.786,184.087 229.245,184.264 C229.03,184.334 228.809,184.391 228.578,184.434 L228.578,181.79 C229.194,181.788 229.763,181.624 230.273,181.302 C230.788,180.979 231.2,180.481 231.507,179.809 C231.813,179.139 231.968,178.301 231.968,177.294 C231.968,176.355 231.813,175.538 231.507,174.86 C231.2,174.182 230.784,173.663 230.261,173.304 C229.748,172.952 229.185,172.771 228.578,172.763 L228.578,170.208 C229.154,170.29 229.664,170.442 230.109,170.665 C230.81,171.016 231.498,171.553 232.162,172.284 L232.162,167.048 C232.162,166.32 232.309,165.771 232.598,165.398 C232.89,165.026 233.302,164.84 233.839,164.84 C234.375,164.84 234.787,165.013 235.08,165.354 C235.368,165.695 235.515,166.201 235.515,166.866 L235.515,182.504 C235.515,183.178 235.359,183.688 235.049,184.024 C234.734,184.361 234.331,184.53 233.839,184.53 C233.355,184.53 232.952,184.353 232.637,184.002 C232.322,183.652 232.162,183.155 232.162,182.504 L232.162,182.504 Z M228.578,184.434 C228.228,184.498 227.859,184.53 227.472,184.53 C226.625,184.53 225.84,184.349 225.117,183.989 C224.395,183.63 223.765,183.12 223.237,182.45 C222.71,181.785 222.31,181.001 222.036,180.101 C221.766,179.2 221.628,178.226 221.628,177.179 C221.628,174.962 222.169,173.232 223.251,171.996 C224.332,170.759 225.761,170.138 227.525,170.138 C227.897,170.138 228.248,170.161 228.578,170.208 L228.578,172.763 L228.54,172.763 C227.889,172.763 227.308,172.944 226.798,173.312 C226.288,173.681 225.894,174.213 225.609,174.9 C225.33,175.587 225.189,176.386 225.189,177.294 C225.189,178.256 225.339,179.076 225.636,179.75 C225.934,180.424 226.346,180.935 226.864,181.275 C227.383,181.617 227.95,181.79 228.566,181.79 L228.578,181.79 L228.578,184.434 L228.578,184.434 Z" id="Fill-14" sketch:type="MSShapeGroup"></path>
                <path d="M252.403,179.893 C252.403,180.872 252.164,181.71 251.69,182.406 C251.211,183.103 250.51,183.63 249.579,183.989 C248.648,184.349 247.513,184.53 246.183,184.53 C244.91,184.53 243.815,184.335 242.906,183.944 C241.997,183.555 241.327,183.066 240.893,182.481 C240.463,181.901 240.246,181.311 240.246,180.722 C240.246,180.336 240.384,179.999 240.662,179.724 C240.937,179.444 241.287,179.307 241.713,179.307 C242.086,179.307 242.369,179.4 242.569,179.582 C242.769,179.764 242.959,180.017 243.142,180.345 C243.505,180.979 243.94,181.448 244.444,181.764 C244.954,182.074 245.647,182.229 246.52,182.229 C247.228,182.229 247.815,182.069 248.267,181.755 C248.724,181.44 248.949,181.076 248.949,180.673 C248.949,180.047 248.715,179.591 248.24,179.307 C247.77,179.023 246.989,178.748 245.908,178.487 C244.689,178.186 243.695,177.866 242.929,177.533 C242.161,177.201 241.549,176.762 241.088,176.217 C240.632,175.671 240.4,174.997 240.4,174.204 C240.4,173.494 240.614,172.82 241.04,172.19 C241.461,171.557 242.086,171.052 242.915,170.675 C243.739,170.298 244.741,170.111 245.908,170.111 C246.826,170.111 247.65,170.205 248.382,170.396 C249.113,170.586 249.726,170.843 250.213,171.162 C250.705,171.486 251.077,171.841 251.33,172.23 C251.587,172.621 251.716,173.002 251.716,173.375 C251.716,173.778 251.578,174.115 251.308,174.372 C251.033,174.634 250.647,174.763 250.142,174.763 C249.778,174.763 249.473,174.66 249.215,174.452 C248.958,174.244 248.666,173.934 248.338,173.517 C248.071,173.171 247.752,172.892 247.389,172.683 C247.025,172.475 246.533,172.372 245.908,172.372 C245.27,172.372 244.732,172.51 244.312,172.78 C243.886,173.056 243.673,173.393 243.673,173.801 C243.673,174.173 243.828,174.479 244.143,174.718 C244.453,174.953 244.875,175.152 245.402,175.308 C245.93,175.463 246.657,175.653 247.584,175.88 C248.684,176.146 249.583,176.47 250.279,176.842 C250.976,177.21 251.503,177.653 251.862,178.158 C252.222,178.664 252.403,179.24 252.403,179.893" id="Fill-15" sketch:type="MSShapeGroup"></path>
                <path d="M267.239,184.974 L267.562,184.185 L263.2,173.193 C262.93,172.559 262.797,172.098 262.797,171.814 C262.797,171.513 262.876,171.229 263.031,170.967 C263.186,170.71 263.399,170.502 263.675,170.347 C263.945,170.191 264.228,170.111 264.525,170.111 C265.035,170.111 265.421,170.275 265.679,170.6 C265.94,170.923 266.171,171.389 266.37,171.996 L269.372,180.726 L272.214,172.607 C272.44,171.947 272.644,171.433 272.825,171.061 C273.008,170.687 273.202,170.436 273.402,170.307 C273.606,170.178 273.895,170.111 274.267,170.111 C274.537,170.111 274.794,170.183 275.043,170.324 C275.286,170.471 275.478,170.661 275.614,170.905 C275.748,171.145 275.815,171.401 275.815,171.672 C275.778,171.836 275.721,172.066 275.646,172.372 C275.565,172.674 275.473,172.984 275.357,173.295 L270.733,185.403 C270.334,186.468 269.948,187.301 269.566,187.909 C269.185,188.516 268.68,188.981 268.051,189.306 C267.426,189.629 266.578,189.793 265.51,189.793 C264.473,189.793 263.692,189.682 263.174,189.456 C262.654,189.229 262.393,188.817 262.393,188.224 C262.393,187.815 262.518,187.501 262.766,187.278 C263.009,187.062 263.377,186.951 263.86,186.951 C264.051,186.951 264.237,186.978 264.419,187.026 C264.646,187.079 264.841,187.106 265.005,187.106 C265.412,187.106 265.731,187.044 265.967,186.924 C266.201,186.805 266.41,186.592 266.596,186.295 C266.782,185.993 266.995,185.555 267.239,184.974" id="Fill-16" sketch:type="MSShapeGroup"></path>
                <path d="M293.222,177.32 C293.222,178.376 293.058,179.352 292.73,180.242 C292.396,181.134 291.922,181.901 291.297,182.544 C290.677,183.183 289.932,183.674 289.067,184.016 C288.203,184.356 287.238,184.528 286.163,184.53 L286.163,181.892 C287.228,181.888 288.073,181.484 288.708,180.677 C289.342,179.87 289.661,178.748 289.661,177.32 C289.661,175.875 289.342,174.749 288.708,173.942 C288.073,173.145 287.228,172.741 286.163,172.736 L286.163,170.111 C287.229,170.113 288.194,170.286 289.067,170.63 C289.94,170.976 290.69,171.473 291.31,172.111 C291.936,172.754 292.41,173.517 292.733,174.398 C293.058,175.281 293.222,176.257 293.222,177.32 L293.222,177.32 Z M286.163,184.53 L286.145,184.53 C285.068,184.53 284.106,184.357 283.245,184.012 C282.39,183.665 281.649,183.169 281.02,182.522 C280.39,181.879 279.916,181.116 279.592,180.238 C279.269,179.355 279.104,178.385 279.104,177.32 C279.104,176.248 279.269,175.264 279.597,174.372 C279.929,173.481 280.398,172.719 281.016,172.085 C281.627,171.455 282.372,170.967 283.245,170.626 C284.123,170.284 285.085,170.111 286.145,170.111 L286.163,170.111 L286.163,172.736 L286.145,172.736 C285.449,172.736 284.842,172.918 284.315,173.277 C283.786,173.636 283.378,174.164 283.095,174.864 C282.807,175.569 282.665,176.386 282.665,177.32 C282.665,178.247 282.807,179.055 283.086,179.75 C283.369,180.442 283.769,180.974 284.292,181.342 C284.819,181.71 285.435,181.892 286.145,181.892 L286.163,181.892 L286.163,184.53 L286.163,184.53 Z" id="Fill-17" sketch:type="MSShapeGroup"></path>
                <path d="M307.135,182.53 L307.135,182.074 C306.709,182.61 306.266,183.063 305.796,183.426 C305.33,183.79 304.82,184.061 304.267,184.237 C303.712,184.415 303.078,184.503 302.368,184.503 C301.513,184.503 300.746,184.326 300.063,183.972 C299.385,183.617 298.857,183.129 298.484,182.504 C298.046,181.75 297.824,180.668 297.824,179.258 L297.824,172.23 C297.824,171.517 297.983,170.989 298.303,170.639 C298.627,170.289 299.048,170.111 299.58,170.111 C300.116,170.111 300.547,170.289 300.879,170.644 C301.207,170.998 301.371,171.525 301.371,172.23 L301.371,177.906 C301.371,178.727 301.441,179.418 301.579,179.977 C301.717,180.535 301.965,180.974 302.324,181.289 C302.684,181.604 303.171,181.764 303.787,181.764 C304.382,181.764 304.944,181.586 305.473,181.231 C306,180.877 306.386,180.411 306.63,179.839 C306.829,179.338 306.927,178.238 306.927,176.54 L306.927,172.23 C306.927,171.525 307.091,170.998 307.419,170.644 C307.751,170.289 308.177,170.111 308.705,170.111 C309.236,170.111 309.658,170.289 309.981,170.639 C310.301,170.989 310.46,171.517 310.46,172.23 L310.46,182.504 C310.46,183.178 310.305,183.684 309.999,184.024 C309.693,184.361 309.294,184.53 308.811,184.53 C308.323,184.53 307.924,184.353 307.609,184.002 C307.295,183.652 307.135,183.16 307.135,182.53" id="Fill-18" sketch:type="MSShapeGroup"></path>
                <path d="M139.873,124.94 C140.117,124.947 140.362,124.95 140.609,124.95 L145.117,124.95 L149.626,124.95 L149.717,124.95 L149.808,124.955 C155.075,125.232 158.435,128.399 158.435,133.76 C158.435,138.894 155.228,141.997 150.194,142.416 L150.138,142.421 L150.081,142.424 C146.945,142.581 143.748,142.568 140.609,142.568 C140.363,142.568 140.117,142.566 139.873,142.563 L139.873,124.94 L139.873,124.94 Z M139.873,63.668 C140.117,63.664 140.363,63.661 140.609,63.661 C148.545,63.661 155.859,65.898 162.462,70.301 C169.104,74.729 173.981,80.685 177.055,88.063 C178.285,91.06 179.565,94.702 179.707,97.964 L179.71,98.038 L179.71,98.113 L179.71,108.822 L179.71,112.277 L139.873,112.277 L139.873,94.658 L159.592,94.658 C158.38,91.345 156.531,88.373 153.891,85.847 C150.153,82.445 145.8,80.857 140.75,80.857 C140.455,80.857 140.163,80.863 139.873,80.874 L139.873,63.668 L139.873,63.668 Z M120.452,112.277 C121.847,115.36 123.942,117.995 126.753,120.195 C130.636,123.254 134.986,124.8 139.873,124.94 L139.873,142.563 C129.311,142.391 120.179,138.505 112.664,130.99 C104.975,123.302 101.085,113.919 101.085,103.045 C101.085,92.215 105.009,82.895 112.664,75.24 C120.179,67.727 129.311,63.84 139.873,63.668 L139.873,80.874 C134.916,81.049 130.554,82.728 126.67,85.919 C123.692,88.366 121.527,91.267 120.154,94.658 L139.873,94.658 L139.873,112.277 L120.452,112.277 L120.452,112.277 Z" id="Fill-19" sketch:type="MSShapeGroup"></path>
                <path d="M346.253,141.021 C338.221,140.214 327.295,134.993 320.422,127.078 C312.865,118.372 309.62,107.888 309.62,96.423 L309.62,84.588 L309.62,72.894 C309.62,70.496 310.56,68.382 312.354,66.788 C314.011,65.315 315.992,64.507 318.219,64.507 C320.547,64.507 322.646,65.343 324.28,66.977 C325.955,68.613 326.816,70.695 326.816,73.034 L326.816,96.423 C326.816,104.226 328.913,111.344 334.479,116.955 C340.068,122.59 347.24,124.668 355.062,124.668 C362.849,124.668 369.94,122.564 375.506,116.977 C381.065,111.373 383.167,104.29 383.167,96.493 L383.167,73.011 C383.167,70.659 384.087,68.565 385.787,66.942 C387.418,65.384 389.433,64.507 391.694,64.507 C394.013,64.507 396.092,65.358 397.731,66.998 C399.37,68.638 400.223,70.717 400.223,73.034 L400.223,96.517 C400.223,108.019 396.9,118.484 389.294,127.182 C382.399,135.065 371.417,140.238 363.473,141.021 C355.527,141.803 354.284,141.828 346.253,141.021" id="Fill-20" sketch:type="MSShapeGroup"></path>
                <path d="M282.737,36.512 C283.916,35.927 285.215,35.624 286.598,35.624 C287.961,35.624 289.231,35.934 290.385,36.512 L282.737,36.512" id="Fill-21" sketch:type="MSShapeGroup"></path>
                <path d="M205.728,104.454 L205.728,104.552 L205.728,104.879 L205.728,106.224 L205.728,111.675 L205.728,122.707 C203.404,120.846 200.457,119.732 197.249,119.732 C193.797,119.732 190.647,121.023 188.251,123.146 L188.251,104.314 C188.251,93.531 192.094,84.223 199.705,76.587 C207.348,68.893 216.726,65.07 227.564,65.07 C238.404,65.07 247.75,68.984 255.411,76.647 C263.087,84.297 267.018,93.608 267.018,104.441 L267.089,119.318 L267.158,119.318 L267.158,142.428 L249.68,142.428 L249.68,104.454 C249.68,98.314 247.566,93.148 243.255,88.775 C238.972,84.431 233.878,82.267 227.775,82.267 C221.627,82.267 216.472,84.396 212.153,88.775 C207.842,93.148 205.728,98.314 205.728,104.454" id="Fill-22" sketch:type="MSShapeGroup"></path>
                <path d="M95.148,134.042 C95.148,136.508 94.105,138.644 92.214,140.219 C90.489,141.656 88.444,142.428 86.198,142.428 C83.789,142.428 81.674,141.458 80.052,139.683 C78.504,137.986 77.67,135.917 77.67,133.619 L77.67,44.011 C77.67,41.691 78.617,39.654 80.29,38.059 C81.958,36.466 84.031,35.624 86.338,35.624 C88.726,35.624 90.832,36.573 92.515,38.256 C94.198,39.939 95.148,42.046 95.148,44.434 L95.148,134.042" id="Fill-23" sketch:type="MSShapeGroup"></path>
                <path d="M197.25,106.31 C212.16,106.31 224.252,118.402 224.252,133.313 C224.252,148.224 212.16,160.315 197.25,160.315 L197.25,146.893 C204.748,146.893 210.829,140.811 210.829,133.313 C210.829,125.814 204.748,119.732 197.25,119.732 L197.25,106.31 L197.25,106.31 Z M197.249,106.31 L197.25,106.31 L197.25,119.732 L197.249,119.732 C189.751,119.732 183.669,125.814 183.669,133.313 C183.669,140.812 189.751,146.893 197.249,146.893 L197.25,146.893 L197.25,160.315 L197.249,160.315 C182.338,160.315 170.246,148.224 170.246,133.313 C170.246,118.402 182.338,106.31 197.249,106.31 L197.249,106.31 Z" id="Fill-24" sketch:type="MSShapeGroup"></path>
                <path d="M197.25,139.472 C200.642,139.472 203.408,136.704 203.408,133.313 C203.408,129.92 200.642,127.153 197.25,127.153 C193.857,127.153 191.091,129.92 191.091,133.313 C191.091,136.704 193.857,139.472 197.25,139.472" id="Fill-25" sketch:type="MSShapeGroup"></path>
                <path d="M269.587,19.787 C277.306,23.166 282.734,30.886 282.734,39.814 C282.734,72.879 282.378,107.952 282.21,142.428 L300.129,142.428 L300.129,46.005 L300.125,46.005 L300.129,39.814 C300.129,39.621 300.124,39.429 300.121,39.235 C299.812,27.485 290.106,17.969 278.284,17.969 C275.197,17.969 272.255,18.619 269.587,19.787" id="Fill-26" sketch:type="MSShapeGroup"></path>
                <path d="M260.891,0.575 L260.891,0.575 C239.308,0.575 221.651,18.235 221.651,39.814 L221.651,53.003 L239.045,53.003 L239.045,39.814 C239.045,39.611 239.048,39.41 239.054,39.209 C239.334,20.879 252.345,5.495 269.588,1.555 C266.788,0.914 263.876,0.575 260.891,0.575" id="Fill-27" sketch:type="MSShapeGroup"></path>
                <path d="M310.473,135.782 L310.473,142.428 L272.333,142.428 L272.333,135.782 C272.333,130.975 276.266,127.043 281.072,127.043 L301.734,127.043 C306.541,127.043 310.473,130.975 310.473,135.782" id="Fill-28" sketch:type="MSShapeGroup"></path>
                <path d="M267.158,135.782 L267.158,142.428 L235.637,142.428 L235.637,135.782 C235.637,130.975 239.569,127.043 244.375,127.043 L258.42,127.043 C263.227,127.043 267.158,130.975 267.158,135.782" id="Fill-29" sketch:type="MSShapeGroup"></path>
                <path d="M334.798,181.054 C318.845,176.157 326.233,155.603 338.486,163.644 C343.331,166.824 349.002,168.073 355.062,168.073 C362.849,168.073 369.94,165.969 375.506,160.382 C381.065,154.778 383.167,147.695 383.167,139.898 L383.167,87.992 C383.167,85.64 384.087,83.545 385.787,81.923 C387.418,80.365 389.433,79.487 391.694,79.487 C394.013,79.487 396.092,80.339 397.731,81.979 C399.37,83.618 400.223,85.697 400.223,88.016 L400.223,139.922 C400.223,151.423 396.9,161.889 389.294,170.587 C382.399,178.47 371.417,183.644 363.473,184.426 C352.462,185.51 345.079,184.209 334.798,181.054" id="Fill-30" sketch:type="MSShapeGroup"></path>
                <path d="M17.808,134.042 C17.808,136.508 16.765,138.644 14.874,140.219 C13.15,141.656 11.105,142.428 8.858,142.428 C6.449,142.428 4.335,141.458 2.713,139.683 C1.165,137.986 0.331,135.917 0.331,133.619 L0.331,44.011 C0.331,41.691 1.277,39.654 2.95,38.059 C4.618,36.466 6.691,35.624 8.999,35.624 C11.386,35.624 13.492,36.573 15.175,38.256 C16.858,39.939 17.808,42.046 17.808,44.434 L17.808,134.042" id="Fill-31" sketch:type="MSShapeGroup"></path>
                <path d="M16.378,109.761 C14.296,111.081 11.934,111.346 9.591,110.593 C7.453,109.906 5.706,108.593 4.502,106.695 C3.212,104.662 2.898,102.356 3.528,100.036 C4.131,97.821 5.433,96.01 7.372,94.776 L54.711,64.65 C56.668,63.405 58.897,63.116 61.14,63.673 C63.379,64.229 65.2,65.528 66.436,67.477 C67.715,69.492 68.043,71.78 67.523,74.102 C67.004,76.424 65.73,78.352 63.717,79.635 L16.378,109.761" id="Fill-32" sketch:type="MSShapeGroup"></path>
                <path d="M29.536,103.66 C27.343,102.532 25.92,100.627 25.385,98.226 C24.896,96.035 25.145,93.862 26.172,91.864 C27.274,89.723 29.104,88.285 31.425,87.656 C33.64,87.056 35.852,87.28 37.906,88.312 L69.603,125.135 C71.117,126.893 73.044,128.774 73.698,130.991 C74.352,133.203 74.152,135.432 73.097,137.484 C72.004,139.606 70.196,141.046 67.931,141.773 C65.666,142.499 63.367,142.357 61.233,141.288 L29.536,103.66" id="Fill-33" sketch:type="MSShapeGroup"></path>
            </g>
        </g>
    </g>
</svg>